<svg width="28" height="29" viewBox="0 0 28 29" fill="none" xmlns="http://www.w3.org/2000/svg">
<circle cx="14" cy="14.7644" r="14.0001" fill="#EDEDED"/>
<mask id="mask0_19_113" style="mask-type:alpha" maskUnits="userSpaceOnUse" x="0" y="0" width="28" height="29">
<circle cx="14" cy="14.7644" r="14.0001" fill="#D9D9D9"/>
</mask>
<g mask="url(#mask0_19_113)">
<path d="M14.0001 6.7644C15.4588 6.7644 16.8577 7.34387 17.8892 8.37533C18.9206 9.40678 19.5001 10.8057 19.5001 12.2644C19.5001 13.7231 18.9206 15.1221 17.8892 16.1535C16.8577 17.185 15.4588 17.7645 14.0001 17.7645C12.5414 17.7645 11.1424 17.185 10.1109 16.1535C9.07949 15.1221 8.50003 13.7231 8.50003 12.2644C8.50003 10.8057 9.07949 9.40678 10.1109 8.37533C11.1424 7.34387 12.5414 6.7644 14.0001 6.7644ZM14.0001 20.5145C20.0776 20.5145 25.0001 22.9757 25.0001 26.0145V28.7645H3V26.0145C3 22.9757 7.92253 20.5145 14.0001 20.5145Z" fill="#D700E1"/>
</g>
</svg>
